<?xml version="1.0" encoding="utf-8"?>
<!-- Generator: Adobe Illustrator 26.4.1, SVG Export Plug-In . SVG Version: 6.00 Build 0)  -->
<svg version="1.1" id="Layer_1" xmlns="http://www.w3.org/2000/svg" xmlns:xlink="http://www.w3.org/1999/xlink" x="0px" y="0px"
	 viewBox="0 0 595.28 841.89" style="enable-background:new 0 0 595.28 841.89;" xml:space="preserve">
<style type="text/css">
	.st0{fill:#EA6523;}
	.st1{fill:#FFFFFF;}
</style>
<g>
	
		<ellipse transform="matrix(0.7071 -0.7071 0.7071 0.7071 -72.6504 138.8926)" class="st0" cx="131.33" cy="157.14" rx="67.26" ry="67.26"/>
	<g>
		<g>
			<path class="st1" d="M108.69,187.9H90.61v-64.37H63.94v-13.87h71.42v13.87h-26.67V187.9z"/>
		</g>
	</g>
	<g>
		<g>
			<path class="st1" d="M177.99,194.85c0,3.34-0.6,6.4-1.79,9.16c-1.19,2.76-2.94,5.12-5.25,7.09c-2.3,1.96-5.16,3.48-8.58,4.55
				c-3.42,1.07-7.39,1.61-11.91,1.61c-3.33,0-6.54-0.35-9.63-1.04c-3.09-0.69-5.78-1.56-8.09-2.62v-12.97
				c1.03,0.76,2.23,1.47,3.61,2.13c1.38,0.65,2.85,1.23,4.41,1.72c1.56,0.49,3.17,0.87,4.81,1.14c1.65,0.27,3.27,0.41,4.88,0.41
				c1.36,0,2.77-0.22,4.23-0.65c1.46-0.44,2.77-1.16,3.92-2.18c1.15-1.02,2.1-2.35,2.84-4.01c0.74-1.65,1.11-3.7,1.11-6.13v-37.06
				h-29.19v-11.06h44.62V194.85z"/>
		</g>
	</g>
</g>
<g>
	<path d="M237.17,182.52h-6v-32.06h-11.81v-5.04h29.66v5.04h-11.86V182.52z"/>
	<path d="M265.92,145.41v25.34c0,1.47-0.1,2.83-0.29,4.08c-0.19,1.25-0.51,2.35-0.96,3.31c-0.77,1.7-1.98,2.99-3.62,3.89
		c-1.65,0.9-3.66,1.34-6.02,1.34c-0.93,0-1.82-0.06-2.69-0.19c-0.86-0.13-1.73-0.34-2.59-0.62v-5.33c1.18,0.42,2.14,0.7,2.88,0.84
		c0.74,0.14,1.34,0.22,1.82,0.22c0.83,0,1.62-0.1,2.35-0.29c0.74-0.19,1.38-0.61,1.92-1.25c0.48-0.64,0.79-1.42,0.94-2.35
		c0.14-0.93,0.22-2.11,0.22-3.55v-25.44H265.92z"/>
	<path d="M303.45,153.86c-1.25-1.22-2.62-2.17-4.1-2.86c-1.49-0.69-3.11-1.03-4.87-1.03c-3.94,0-5.9,1.42-5.9,4.27
		c0,1.41,0.44,2.52,1.32,3.34c0.88,0.82,2.09,1.54,3.62,2.18l3.31,1.44c2.91,1.28,5.16,2.78,6.74,4.51
		c1.58,1.73,2.38,3.84,2.38,6.34c0,1.86-0.32,3.47-0.96,4.85c-0.64,1.38-1.54,2.51-2.71,3.41c-1.17,0.9-2.56,1.56-4.18,1.99
		c-1.62,0.43-3.4,0.65-5.35,0.65c-2.11,0-4.06-0.27-5.86-0.82c-1.79-0.54-3.39-1.44-4.8-2.69v-6.24c0-0.19,0.08-0.33,0.24-0.41
		c0.16-0.08,0.3-0.06,0.43,0.07c0.67,0.77,1.36,1.46,2.06,2.06c0.7,0.61,1.46,1.12,2.26,1.54c0.8,0.42,1.67,0.74,2.62,0.96
		c0.94,0.22,1.98,0.34,3.1,0.34c2.37,0,4.07-0.44,5.11-1.32c1.04-0.88,1.56-2.23,1.56-4.06c0-1.41-0.48-2.58-1.44-3.53
		c-0.96-0.94-2.35-1.82-4.18-2.62l-3.31-1.44c-1.18-0.51-2.28-1.09-3.29-1.73c-1.01-0.64-1.87-1.37-2.59-2.18
		c-0.72-0.82-1.29-1.75-1.7-2.81c-0.42-1.06-0.62-2.29-0.62-3.7c0-1.57,0.29-2.94,0.86-4.13c0.58-1.18,1.39-2.17,2.45-2.95
		c1.06-0.78,2.32-1.38,3.79-1.8c1.47-0.42,3.09-0.62,4.85-0.62c0.77,0,1.58,0.05,2.45,0.14c0.86,0.1,1.73,0.26,2.59,0.48
		c0.86,0.22,1.7,0.54,2.52,0.94c0.82,0.4,1.58,0.9,2.28,1.51v5.57c0,0.19-0.08,0.33-0.24,0.41
		C303.72,154.01,303.58,153.99,303.45,153.86z"/>
	<path d="M321.84,182.95c-2.18,0-4.06-0.38-5.66-1.15c-1.6-0.77-2.92-1.8-3.96-3.1c-1.04-1.3-1.81-2.79-2.3-4.49
		c-0.5-1.7-0.74-3.49-0.74-5.38c0-1.98,0.27-3.83,0.82-5.54c0.54-1.71,1.34-3.21,2.4-4.49c1.06-1.28,2.38-2.28,3.96-3
		c1.58-0.72,3.42-1.08,5.5-1.08c2.08,0,3.91,0.36,5.5,1.08c1.58,0.72,2.9,1.72,3.96,3c1.06,1.28,1.86,2.78,2.4,4.49
		c0.54,1.71,0.82,3.56,0.82,5.54c0,1.89-0.26,3.68-0.77,5.38c-0.51,1.7-1.29,3.19-2.33,4.49c-1.04,1.3-2.35,2.33-3.94,3.1
		C325.89,182.57,324.01,182.95,321.84,182.95z M321.84,178.2c2.18,0,3.81-0.74,4.9-2.23c1.09-1.49,1.63-3.86,1.63-7.13
		c0-3.33-0.54-5.73-1.61-7.2c-1.07-1.47-2.71-2.21-4.92-2.21c-2.18,0-3.81,0.74-4.9,2.21c-1.09,1.47-1.63,3.87-1.63,7.2
		c0,3.26,0.55,5.64,1.66,7.13C318.07,177.45,319.69,178.2,321.84,178.2z"/>
	<path d="M355.48,179.16c-0.9,1.25-1.99,2.2-3.29,2.86c-1.3,0.66-2.71,0.98-4.25,0.98c-3.2,0-5.58-0.89-7.13-2.66
		c-1.55-1.78-2.33-4.52-2.33-8.23v-16.75h5.9v16.94c0,2.21,0.39,3.78,1.18,4.7c0.78,0.93,2.01,1.39,3.67,1.39
		c1.76,0,3.24-0.72,4.44-2.16c1.2-1.44,1.8-3.49,1.8-6.14v-14.74h5.9v27.17h-5.57l-0.29-3.26L355.48,179.16z"/>
	<path d="M372.91,142.77v39.74h-5.95v-39.74H372.91z"/>
	<path d="M392.11,176.85c0.16-0.13,0.31-0.16,0.46-0.1c0.14,0.06,0.22,0.19,0.22,0.38v4.22c-0.74,0.58-1.61,1-2.62,1.27
		c-1.01,0.27-2.06,0.41-3.14,0.41c-2.4-0.03-4.14-0.62-5.23-1.75c-1.09-1.14-1.63-2.87-1.63-5.21v-16.18h-4.27v-4.56h4.27v-6.34
		h5.86v6.34h6.62v4.56h-6.62v15.6c0,0.93,0.18,1.6,0.53,2.02c0.35,0.42,0.91,0.62,1.68,0.62c0.83,0,1.55-0.11,2.16-0.34
		C390.99,177.59,391.56,177.27,392.11,176.85z"/>
	<path d="M394.99,147.91c0-0.99,0.35-1.86,1.06-2.59c0.7-0.74,1.6-1.1,2.69-1.1c0.51,0,1,0.1,1.46,0.31
		c0.46,0.21,0.87,0.48,1.22,0.82c0.35,0.34,0.63,0.73,0.84,1.18c0.21,0.45,0.31,0.91,0.31,1.39c0,0.48-0.1,0.94-0.31,1.39
		c-0.21,0.45-0.49,0.84-0.84,1.18c-0.35,0.34-0.76,0.6-1.22,0.79c-0.46,0.19-0.95,0.29-1.46,0.29c-0.54,0-1.04-0.1-1.49-0.31
		c-0.45-0.21-0.84-0.48-1.18-0.82c-0.34-0.34-0.6-0.72-0.79-1.15C395.08,148.85,394.99,148.39,394.99,147.91z M401.75,155.35v27.17
		h-6v-27.17H401.75z"/>
	<path d="M418.51,182.95c-2.18,0-4.06-0.38-5.66-1.15c-1.6-0.77-2.92-1.8-3.96-3.1c-1.04-1.3-1.81-2.79-2.3-4.49
		c-0.5-1.7-0.74-3.49-0.74-5.38c0-1.98,0.27-3.83,0.82-5.54c0.54-1.71,1.34-3.21,2.4-4.49c1.06-1.28,2.38-2.28,3.96-3
		c1.58-0.72,3.42-1.08,5.5-1.08c2.08,0,3.91,0.36,5.5,1.08c1.58,0.72,2.9,1.72,3.96,3c1.06,1.28,1.86,2.78,2.4,4.49
		c0.54,1.71,0.82,3.56,0.82,5.54c0,1.89-0.26,3.68-0.77,5.38c-0.51,1.7-1.29,3.19-2.33,4.49c-1.04,1.3-2.35,2.33-3.94,3.1
		C422.56,182.57,420.68,182.95,418.51,182.95z M418.51,178.2c2.18,0,3.81-0.74,4.9-2.23c1.09-1.49,1.63-3.86,1.63-7.13
		c0-3.33-0.54-5.73-1.61-7.2c-1.07-1.47-2.71-2.21-4.92-2.21c-2.18,0-3.81,0.74-4.9,2.21c-1.09,1.47-1.63,3.87-1.63,7.2
		c0,3.26,0.55,5.64,1.66,7.13C414.74,177.45,416.36,178.2,418.51,178.2z"/>
	<path d="M441.55,158.76h0.05c0.83-1.12,1.91-2.06,3.24-2.83c1.33-0.77,2.82-1.15,4.49-1.15c3.01,0,5.29,0.9,6.84,2.69
		c1.55,1.79,2.33,4.53,2.33,8.21v16.85h-5.9v-17.14c0-2.24-0.42-3.8-1.25-4.68c-0.83-0.88-2-1.32-3.5-1.32
		c-0.86,0-1.68,0.19-2.45,0.58c-0.77,0.38-1.44,0.94-2.02,1.66c-0.58,0.72-1.03,1.6-1.37,2.64c-0.34,1.04-0.5,2.22-0.5,3.53v14.74
		h-5.9v-27.17h5.66L441.55,158.76z"/>
</g>
</svg>
